<?xml version="1.0" encoding="utf-8"?>
<!-- Generator: Adobe Illustrator 26.0.3, SVG Export Plug-In . SVG Version: 6.00 Build 0)  -->
<svg version="1.0" id="katman_1" xmlns="http://www.w3.org/2000/svg" xmlns:xlink="http://www.w3.org/1999/xlink" x="0px" y="0px"
	 viewBox="0 0 600 450" style="enable-background:new 0 0 600 450;" xml:space="preserve">
<style type="text/css">
	.st0{fill:#010202;}
</style>
<path class="st0" d="M329.2,187.3c2.3,0,4.5-0.9,6.1-2.4c1.6-1.6,2.6-3.7,2.6-6c0-2.3-1-4.5-2.6-6.1c-1.6-1.6-3.8-2.5-6.1-2.6
	c-2.3,0.1-4.4,1-6,2.6c-1.6,1.6-2.5,3.8-2.5,6.1c0,2.2,0.9,4.4,2.5,5.9C324.8,186.4,326.9,187.3,329.2,187.3z"/>
<path class="st0" d="M388.5,195.4h21.1v1.7c-1.2,0.2-2.3,0.6-3.3,1.1c-1.9,0.9-5.8,5.2-8.7,12.5c-5,12.6-10.3,27.5-15.8,44.6
	l-2.1,6.5c-0.9,2.9-1.7,4.8-2.1,6c-0.4,1.2-0.9,2.9-1.8,5.1c-0.5,1.6-1.2,3.2-2,4.7c-1,1.9-3,5.8-4.5,7c-2.4,2-6,4.3-10.5,4
	c-8.7,0-15.3-6.5-15.4-14.2c0-5.2,3.3-8.7,8.3-8.7c3.6,0,6.8,1.9,6.8,6c0,2.9-2.9,6-2.9,7.5c0,4,2.3,5.8,6.8,5.8
	c3.6,0,6.5-2.3,8.7-6.9c3-5.2,3.2-11,0.8-17.3l-18.5-48.6c-4.2-11.2-7.5-14.9-11.4-15.3v-1.7h29.1v1.7c-3.5,0.4-5.3,2.4-5.3,6.1
	c0,2.7,1,6.8,2.9,12l3.5,9.4c4,10.2,7.2,19.1,8.9,24.7c3.7-11.6,7.2-21.8,10.5-30.7c2.4-6.6,3.6-11.4,3.6-14.2c0-5-2.7-7.3-6.8-7.3
	L388.5,195.4z"/>
<path class="st0" d="M185.7,257.5c-3.7-0.6-6.9-4-6.9-11V162l-21.2,4.6v1.8c3.6-0.4,7.2,2.8,7.2,9.6v68.6c0,6.6-3.6,10.5-7.2,11
	c-0.3,0.1-0.7,0.1-1,0.1c-1.8,0.1-3.7-0.2-5.4-0.9c-2.8-1.2-5.2-3.4-7.2-6.7l-9.8-15.6c-2.1-3.3-5.1-5.8-8.8-7.2
	c-3.6-1.4-7.6-1.6-11.4-0.6l11-12.1c8.3-9.2,16.1-15,23.4-17.5v-1.7h-24.3v1.7c6.3,2.4,5.9,7.8-1.3,16.2l-15.5,18V162l-21.2,4.6v1.8
	c3.6,0,7.2,3.6,7.2,9.8v68.4c0,7.5-3.5,10.5-7.2,11v1.7h28.1v-1.7c-4.6-0.6-6.9-4.2-6.9-11v-12.6l6-6.6l14.6,23.8
	c3.5,5.7,6.7,8,11.8,8h48.9v-1.3C188.8,257.9,187.4,257.8,185.7,257.5z"/>
<path class="st0" d="M244.1,249.4v-28.5c-0.3-18.6-8.2-27.1-26.2-27.1c-5.8,0-11.4,1.8-15.9,5.4c-4.8,3.6-7.1,7.7-7.1,12.4
	c0,4.6,2.6,8,6.8,8c4.5,0,7.7-2.5,7.7-6.1c0-2.7-1.8-6.4-1.8-8.9c0-4.6,3.5-8.6,9.5-8.6c7.7,0,13.2,5.7,13.2,18.5v7.6l-6.4,1.5
	c-3.3,0.6-6.2,1.3-8.3,1.9c-2.2,0.6-5,1.5-8.3,2.8c-6.7,2.6-10.3,5-13.4,9.6c-1.5,2.2-2.3,4.8-2.3,7.5c0,10.6,7.4,15.4,17.9,15.4
	c8.2,0,17-4.3,20.9-12.5c0.1,2.6,0.7,5.1,1.8,7.4c4.4,8.8,18.8,3.6,18.8,3.6v-1.7C244.6,258.7,244.1,251.2,244.1,249.4z
	 M230.4,240.6c0,4.2-1.5,7.6-4.6,10.1c-3,2.4-6,3.7-9.2,3.7c-6.3,0-10.4-4.1-10.4-11.6c0-3.6,2-6.9,3.6-8.8c1.3-1.3,2.8-2.4,4.5-3.2
	c2.2-1.1,3.3-1.7,4.8-2.4l5.9-2.2c2.9-1.1,4.7-1.8,5.5-2.2L230.4,240.6z"/>
<path class="st0" d="M514,195.4h-49.9V162H514l-10.5,16.7L514,195.4z"/>
<path class="st0" d="M412.5,251.1c-6.2-6.4-9.6-14.9-9.5-23.8c-0.1-4.4,0.7-8.7,2.4-12.8c1.6-4.1,4.1-7.8,7.1-10.9
	c6.3-6.6,14-10,23-10c8.9,0,16.6,3.3,22.9,10c3.1,3.1,5.6,6.8,7.2,10.8c1.7,4.1,2.5,8.4,2.4,12.8c0.1,4.4-0.8,8.8-2.4,12.8
	c-1.7,4.1-4.1,7.8-7.2,10.9c-6.3,6.5-14,9.8-22.9,9.8C426.5,260.9,418.8,257.6,412.5,251.1z M447.1,204.7c-2.5-4.9-5.9-7.8-9.8-8.6
	c-7.9-1.6-15,6.5-17.6,19.4c-1.1,5.8-1.4,11.7-0.8,17.6c0.6,5.9,2.2,11.6,4.8,16.9c2.5,4.9,5.9,7.8,9.8,8.6
	c7.9,1.6,15.2-6.9,17.8-19.9C453.6,227.8,452.5,214.5,447.1,204.7L447.1,204.7z"/>
<path class="st0" d="M336.6,246.5v-51.1h-45.2v1.5c6,0.9,8.9,5.4,6.2,12.8c-14.1,38.1-13.2,36.4-14.1,39.5c-0.9-2.9-3-10.2-6.3-19.2
	c-3.3-9-5.5-15.1-6.4-17.7c-3.5-10.6-2.3-14.5,3.3-15.2v-1.7h-29.3v1.7c4.4,0.9,8.2,5.9,11.4,14.8l4.5,11.6
	c4.9,12.5,10.7,29.8,12.7,35.7h9.7c3.1-9.1,15.7-45.3,17.4-49c1.8-4.2,3.9-7.4,6.2-9.6c1.1-1.2,2.5-2.1,4-2.7
	c1.5-0.6,3.1-0.9,4.7-0.9c0,0,7.1,0,7.1,6.8v5.7c0,0.1,0,0.1,0,0.2v36.9c0,7.1-3.5,10.5-7.1,11v1.7h28v-1.7
	C339.7,257,336.6,253.7,336.6,246.5z"/>
</svg>
