<svg height="2500" viewBox="-3.51 -.07 2179.67 2536.92" width="2151" xmlns="http://www.w3.org/2000/svg"><path d="m2173.57 597.31c2.59 22 2.2 409.94-.29 426.26-6.61 3.09-14 1.57-21.13 1.46-96.56-1.51-190.85-17.32-282.94-46.11a1016.61 1016.61 0 0 1 -270.46-131.14c-4.93-3.36-10.09-6.37-15.18-9.48-.46-.28-1.24 0-2 0-3.85 1.75-2.73 5.46-2.82 8.52-.22 6.66-.09 13.33-.09 20 0 279.22-.71 558.44.18 837.66 1 310-183 594-467.45 721.69-72.81 32.68-148.9 53.42-228.22 63-395.62 47.68-761.11-208.31-858.84-589-20.73-80.59-27.84-162.49-22.75-245.76 20.41-334.35 256.06-623.48 582-711.63 85.07-23 171.56-30.61 259.33-25.3 13.95.85 27.85 2.66 41.74 4.31 3.16.37 6.17 1.94 8.93 2.86 2.81 18.89 3.83 257 1.85 418.27-.07 5.22-.7 10.44-1.17 17-7.41-1.6-13.8-2.79-20.08-4.39a347.09 347.09 0 0 0 -87-10.84c-158.91.59-301.06 108.48-344.37 261.54-57.53 203.32 70.44 413 278.42 452.66 199 38 373.21-90.37 417.19-265.91a370.25 370.25 0 0 0 11-91v-4l.24-1153.52q.06-259.89.22-519.78c0-7.23.34-14.47.55-22.78 4.51-.7 8.25-1.71 12-1.77 14.66-.2 29.32-.11 44-.11h345.83c7.89 0 15.78.28 23.38.43 4.65 7.06 3 13.92 3.25 20.34 5.23 109.5 35.54 211.31 96.21 302.89 95.34 144 228.54 232 398.26 263.8 28 5.25 56.9 6 85.39 8.85 4.58.47 9.13.67 14.82.98z"/></svg>